<?xml version="1.0" encoding="UTF-8" standalone="no"?>
<svg
   xmlns:dc="http://purl.org/dc/elements/1.1/"
   xmlns:cc="http://creativecommons.org/ns#"
   xmlns:rdf="http://www.w3.org/1999/02/22-rdf-syntax-ns#"
   xmlns:svg="http://www.w3.org/2000/svg"
   xmlns="http://www.w3.org/2000/svg"
   xmlns:sodipodi="http://sodipodi.sourceforge.net/DTD/sodipodi-0.dtd"
   xmlns:inkscape="http://www.inkscape.org/namespaces/inkscape"
   id="svg17967"
   version="1.1"
   viewBox="0 0 93.321412 84.959564"
   height="84.959564mm"
   width="93.321411mm"
   sodipodi:docname="PV_case.svg"
   inkscape:version="0.92.5 (2060ec1f9f, 2020-04-08)">
  <sodipodi:namedview
     pagecolor="#ffffff"
     bordercolor="#666666"
     borderopacity="1"
     objecttolerance="10"
     gridtolerance="10"
     guidetolerance="10"
     inkscape:pageopacity="0"
     inkscape:pageshadow="2"
     inkscape:window-width="1920"
     inkscape:window-height="1028"
     id="namedview8"
     showgrid="false"
     inkscape:zoom="2.3599999"
     inkscape:cx="124.94078"
     inkscape:cy="169.91525"
     inkscape:window-x="0"
     inkscape:window-y="0"
     inkscape:window-maximized="1"
     inkscape:current-layer="svg17967"
     fit-margin-top="0"
     fit-margin-left="0"
     fit-margin-right="0"
     fit-margin-bottom="0"
     showguides="false" />
  <defs
     id="defs17961" />
  <metadata
     id="metadata17964">
    <rdf:RDF>
      <cc:Work
         rdf:about="">
        <dc:format>image/svg+xml</dc:format>
        <dc:type
           rdf:resource="http://purl.org/dc/dcmitype/StillImage" />
        <dc:title></dc:title>
      </cc:Work>
    </rdf:RDF>
  </metadata>
  <path
     inkscape:connector-curvature="0"
     style="color:#000000;font-style:normal;font-variant:normal;font-weight:normal;font-stretch:normal;font-size:medium;line-height:normal;font-family:sans-serif;font-variant-ligatures:normal;font-variant-position:normal;font-variant-caps:normal;font-variant-numeric:normal;font-variant-alternates:normal;font-feature-settings:normal;text-indent:0;text-align:start;text-decoration:none;text-decoration-line:none;text-decoration-style:solid;text-decoration-color:#000000;letter-spacing:normal;word-spacing:normal;text-transform:none;writing-mode:lr-tb;direction:ltr;text-orientation:mixed;dominant-baseline:auto;baseline-shift:baseline;text-anchor:start;white-space:normal;shape-padding:0;clip-rule:nonzero;display:inline;overflow:visible;visibility:visible;opacity:1;isolation:auto;mix-blend-mode:normal;color-interpolation:sRGB;color-interpolation-filters:linearRGB;solid-color:#000000;solid-opacity:1;vector-effect:none;fill:#000000;fill-opacity:1;fill-rule:nonzero;stroke:none;stroke-width:0.92604166;stroke-linecap:round;stroke-linejoin:round;stroke-miterlimit:4;stroke-dasharray:none;stroke-dashoffset:0;stroke-opacity:1;paint-order:normal;color-rendering:auto;image-rendering:auto;shape-rendering:auto;text-rendering:auto;enable-background:accumulate"
     d="m 81.218446,30.342256 a 0.46306715,0.46306715 0 0 0 -0.29404,0.0904 l -3.40031,2.52236 v -1.31722 a 0.46306715,0.46306715 0 0 0 -0.462501,-0.46355 h -2.219504 a 0.46306715,0.46306715 0 0 0 -0.46303,0.46355 v 3.65041 l -1.84329,1.36737 a 0.46306715,0.46306715 0 0 0 -0.18759,0.37204 v 13.920611 a 0.46306715,0.46306715 0 0 0 0.46302,0.46354 h 14.548995 v 3.84369 a 0.46306715,0.46306715 0 0 0 0.46302,0.4625 h 3.55017 a 0.46306715,0.46306715 0 0 0 0.4625,-0.4625 v -5.62395 c 0.15779,-0.0165 0.19783,8.73e-4 0.40928,-0.0605 0.22478,-0.0653 0.46779,-0.16273 0.68368,-0.34933 0.21589,-0.18661 0.39222,-0.49591 0.39222,-0.84336 v -3.675231 c 0,0 0.0162,-0.377419 -0.17518,-0.76998 -0.19136,-0.39256 -0.67857,-0.815449 -1.39837,-0.815449 h -1.27072 a 0.46306715,0.46306715 0 0 0 -0.4625,0.47439 c 0,0 -0.004,0.11494 -0.0522,0.21394 -0.0483,0.099 -0.0527,0.16692 -0.34055,0.16692 -0.28461,0 -0.33217,-0.0883 -0.40101,-0.206711 -0.0688,-0.1184 -0.0837,-0.240289 -0.0837,-0.240289 a 0.46306715,0.46306715 0 0 0 -0.46664,-0.426341 c 0,0 -0.84141,0.009 -1.25419,0.009 -0.6843,0 -1.14434,0.44949 -1.32446,0.83819 -0.18013,0.38871 -0.17932,0.758609 -0.17932,0.758609 a 0.46306715,0.46306715 0 0 0 0,0.006 v 3.68298 c 0,0.36421 0.15357,0.69382 0.37465,0.89917 0.22109,0.20534 0.47924,0.29967 0.71056,0.35192 0.18983,0.0429 0.21316,0.0152 0.36276,0.0181 v 0.82165 H 73.273711 V 37.260696 l 7.926645,-5.87922 7.9065,5.8782 v 1.55646 c -0.9026,0.18172 -1.58905,0.98429 -1.58905,1.93789 0,1.08612 0.8905,1.976621 1.97662,1.976621 1.08612,0 1.97663,-0.890501 1.97663,-1.976621 0,-0.89954 -0.61178,-1.66321 -1.43867,-1.89962 v -1.8273 a 0.46306715,0.46306715 0 0 0 -0.18604,-0.37103 l -8.36951,-6.22287 a 0.46306715,0.46306715 0 0 0 -0.25839,-0.0915 z m -5.913855,1.75803 h 1.29398 v 1.54151 l -1.29398,0.95964 z m 5.138195,5.78569 c -0.20726,0 -0.38351,0.1408 -0.432011,0.34365 l -0.81133,3.620471 c -0.0309,0.132289 -3.43e-4,0.269079 0.0879,0.3705 0.0838,0.105829 0.21188,0.16744 0.34417,0.16744 h 0.722951 l -0.3483,3.131059 c -0.0221,0.20726 0.10156,0.401011 0.295589,0.467161 0.0485,0.0176 0.0926,0.0222 0.141081,0.0222 0.14993,0 0.29552,-0.0793 0.3793,-0.21601 l 2.88406,-4.806421 c 0.0838,-0.1367 0.0835,-0.30435 0.004,-0.44547 -0.0794,-0.14111 -0.22469,-0.22066 -0.38344,-0.22066 h -0.97051 l 0.24288,-1.93577 c 0.0176,-0.12347 -0.0221,-0.25127 -0.10594,-0.34833 -0.0838,-0.097 -0.20284,-0.14984 -0.33072,-0.14984 z m 0.3483,0.88626 h 0.86868 l -0.24236,1.93578 c -0.0176,0.12347 0.0221,0.25131 0.10593,0.34833 0.0838,0.097 0.20285,0.14984 0.33073,0.14984 h 0.68782 l -1.437641,2.40347 0.180861,-1.60972 c 0.0132,-0.12347 -0.0263,-0.251049 -0.11007,-0.34365 -0.0838,-0.0926 -0.20284,-0.14574 -0.33073,-0.14574 h -0.66611 z m 8.70334,0.9312 c 0.58566,0 1.05059,0.46545 1.05059,1.0511 0,0.585661 -0.46493,1.05058 -1.05059,1.05058 -0.58565,0 -1.05006,-0.464919 -1.05006,-1.05058 0,-0.58565 0.46441,-1.0511 1.05006,-1.0511 z m -1.14153,4.324801 c 0.0303,0.0914 0.007,0.10142 0.0667,0.204119 0.18518,0.318531 0.60975,0.666631 1.20199,0.666631 0.58901,0 1.01277,-0.35854 1.17305,-0.687301 0.0419,-0.0859 0.0169,-0.0894 0.0382,-0.167949 h 0.91468 c 0.41867,0 0.48653,0.132339 0.56586,0.29508 0.0793,0.162729 0.0816,0.341059 0.0816,0.341059 a 0.46306715,0.46306715 0 0 0 0,0.0114 v 3.68711 c 0,0.0786 -0.009,0.0892 -0.0713,0.14314 -0.0624,0.054 -0.19062,0.11772 -0.33693,0.1602 -0.29263,0.085 -0.61495,0.0904 -0.61495,0.0904 a 0.46306715,0.46306715 0 0 0 -0.46147,0.46302 v 5.55728 h -2.62465 v -5.56245 a 0.46306715,0.46306715 0 0 0 -0.51986,-0.45888 c 0,0 -0.30305,0.0306 -0.56431,-0.0284 -0.13063,-0.0295 -0.23487,-0.0808 -0.28525,-0.12764 -0.0504,-0.0468 -0.078,-0.0755 -0.078,-0.22015 v -3.67677 c 0,0 0.009,-0.20055 0.093,-0.381891 0.084,-0.181339 0.14363,-0.30128 0.48472,-0.30128 0.31616,0 0.67752,-0.004 0.9369,-0.007 z"
     id="path1406" />
  <path
     inkscape:connector-curvature="0"
     id="path1753"
     d="m 9.3145647,32.964093 -0.0486,0.0129 h -6.033219 a 0.46306715,0.46306715 0 0 0 -0.44752,0.58135 l 1.56063,5.91541 h -1.9141 a 0.46306715,0.46306715 0 0 0 -0.46302,0.46302 v 10.76937 a 0.46306715,0.46306715 0 0 0 0.46302,0.4625 H 20.588274 a 0.46306715,0.46306715 0 0 0 0.462501,-0.4625 v -3.30626 h 2.976047 a 0.46306715,0.46306715 0 0 0 0.447,-0.58291 l -3.616833,-13.49737 a 0.46306715,0.46306715 0 0 0 -0.447,-0.34261 h -5.167124 l -0.004,-0.0129 -0.0481,0.0129 H 9.3177047 Z m -5.480289,0.93896 h 4.772829 l 0.92967,3.47007 h -4.787309 z m 5.731949,0 h 4.9666203 l 0.92966,3.47007 h -4.96662 z m 5.9247003,0 h 4.56355 l 0.930174,3.47007 h -4.563543 z m 5.737639,4.38061 0.939478,3.50418 h -4.564063 l -0.935346,-3.48919 h 4.559931 z m -16.2351883,0.015 h 4.791439 l 0.9348303,3.4892 H 5.9297557 v 0.0605 z m 5.7505603,0 h 4.966099 l 0.93483,3.4892 h -4.966109 z m -7.8486203,2.101681 h 1.69499 l 1.75545,6.65489 a 0.46306715,0.46306715 0 0 0 0.44751,0.34468 H 20.125273 v 2.84324 H 2.8953157 Z m 3.26285,2.31356 h 4.8095293 l 1.00769,3.75997 H 7.1498357 Z m 5.7686393,0 h 4.966106 l 1.007172,3.75997 h -4.966098 z m 5.925221,0 h 4.564062 l 1.007688,3.75997 h -4.564062 z"
     style="color:#000000;font-style:normal;font-variant:normal;font-weight:normal;font-stretch:normal;font-size:medium;line-height:normal;font-family:sans-serif;font-variant-ligatures:normal;font-variant-position:normal;font-variant-caps:normal;font-variant-numeric:normal;font-variant-alternates:normal;font-feature-settings:normal;text-indent:0;text-align:start;text-decoration:none;text-decoration-line:none;text-decoration-style:solid;text-decoration-color:#000000;letter-spacing:normal;word-spacing:normal;text-transform:none;writing-mode:lr-tb;direction:ltr;text-orientation:mixed;dominant-baseline:auto;baseline-shift:baseline;text-anchor:start;white-space:normal;shape-padding:0;clip-rule:nonzero;display:inline;overflow:visible;visibility:visible;opacity:1;isolation:auto;mix-blend-mode:normal;color-interpolation:sRGB;color-interpolation-filters:linearRGB;solid-color:#000000;solid-opacity:1;vector-effect:none;fill:#000000;fill-opacity:1;fill-rule:nonzero;stroke:none;stroke-width:0.92604166;stroke-linecap:butt;stroke-linejoin:round;stroke-miterlimit:4;stroke-dasharray:none;stroke-dashoffset:0;stroke-opacity:1;color-rendering:auto;image-rendering:auto;shape-rendering:auto;text-rendering:auto;enable-background:accumulate" />
  <g
     transform="translate(181.73642,-111.66213)"
     id="layer1-6">
    <rect
       style="opacity:0;fill:#000000;fill-opacity:1;stroke:none;stroke-width:0.14999999;stroke-linecap:round;stroke-linejoin:round;stroke-miterlimit:4;stroke-dasharray:none;stroke-dashoffset:0;stroke-opacity:1;paint-order:normal"
       id="rect842"
       width="26.458334"
       height="26.458334"
       x="-147.22173"
       y="141.4628"
       ry="0.48886797" />
    <path
       inkscape:connector-curvature="0"
       id="path1515"
       d="m -134.15353,144.38279 c -5.65653,0 -10.2526,4.59521 -10.2526,10.25174 0,5.65654 4.59607,10.25175 10.2526,10.25175 5.65657,0 10.25177,-4.59521 10.25177,-10.25175 0,-5.65653 -4.5952,-10.25174 -10.25177,-10.25174 z m 0,0.92587 c 5.15607,0 9.3259,4.16981 9.3259,9.32587 0,5.15607 -4.16983,9.32588 -9.3259,9.32588 -5.15602,0 -9.32586,-4.16981 -9.32586,-9.32588 0,-5.15606 4.16984,-9.32587 9.32586,-9.32587 z"
       style="color:#000000;font-style:normal;font-variant:normal;font-weight:normal;font-stretch:normal;font-size:medium;line-height:normal;font-family:sans-serif;font-variant-ligatures:normal;font-variant-position:normal;font-variant-caps:normal;font-variant-numeric:normal;font-variant-alternates:normal;font-feature-settings:normal;text-indent:0;text-align:start;text-decoration:none;text-decoration-line:none;text-decoration-style:solid;text-decoration-color:#000000;letter-spacing:normal;word-spacing:normal;text-transform:none;writing-mode:lr-tb;direction:ltr;text-orientation:mixed;dominant-baseline:auto;baseline-shift:baseline;text-anchor:start;white-space:normal;shape-padding:0;clip-rule:nonzero;display:inline;overflow:visible;visibility:visible;opacity:1;isolation:auto;mix-blend-mode:normal;color-interpolation:sRGB;color-interpolation-filters:linearRGB;solid-color:#000000;solid-opacity:1;vector-effect:none;fill:#000000;fill-opacity:1;fill-rule:nonzero;stroke:none;stroke-width:0.92604166;stroke-linecap:round;stroke-linejoin:round;stroke-miterlimit:4;stroke-dasharray:none;stroke-dashoffset:0;stroke-opacity:1;paint-order:normal;color-rendering:auto;image-rendering:auto;shape-rendering:auto;text-rendering:auto;enable-background:accumulate" />
    <circle
       r="4.6438379"
       cy="154.63452"
       cx="-134.15395"
       id="path5640"
       style="opacity:1;fill:none;fill-opacity:1;stroke:#000000;stroke-width:0.92604166;stroke-linecap:round;stroke-linejoin:round;stroke-miterlimit:4;stroke-dasharray:none;stroke-dashoffset:0;stroke-opacity:1;paint-order:normal" />
  </g>
  <path
     style="fill:none;stroke:#000000;stroke-width:0.26458332px;stroke-linecap:butt;stroke-linejoin:miter;stroke-opacity:1"
     d="m 25.464998,42.581377 c 9.417372,0.336336 9.417372,0.224224 9.417372,0.224224 v 0 h 1.121116"
     id="path883"
     inkscape:connector-curvature="0" />
  <path
     style="fill:none;stroke:#000000;stroke-width:0.26458332px;stroke-linecap:butt;stroke-linejoin:miter;stroke-opacity:1"
     d="m 61.78915,43.590381 c 6.054027,0 5.381355,0 6.166139,0 0.78478,0 0.896892,0 0.896892,0"
     id="path885"
     inkscape:connector-curvature="0" />
</svg>
