<?xml version="1.0" encoding="UTF-8" standalone="no"?>
<!-- Created with Inkscape (http://www.inkscape.org/) -->

<svg
   width="33mm"
   height="24.5mm"
   viewBox="0 0 33.000001 24.500001"
   version="1.1"
   id="svg1131"
   sodipodi:docname="cpnigeria-logo.svg"
   inkscape:version="1.2.1 (9c6d41e, 2022-07-14)"
   xmlns:inkscape="http://www.inkscape.org/namespaces/inkscape"
   xmlns:sodipodi="http://sodipodi.sourceforge.net/DTD/sodipodi-0.dtd"
   xmlns="http://www.w3.org/2000/svg"
   xmlns:svg="http://www.w3.org/2000/svg">
  <sodipodi:namedview
     id="namedview1133"
     pagecolor="#ffffff"
     bordercolor="#000000"
     borderopacity="0.25"
     inkscape:showpageshadow="2"
     inkscape:pageopacity="0.0"
     inkscape:pagecheckerboard="0"
     inkscape:deskcolor="#d1d1d1"
     inkscape:document-units="mm"
     showgrid="false"
     showguides="false"
     inkscape:zoom="8"
     inkscape:cx="48.6875"
     inkscape:cy="55.6875"
     inkscape:window-width="1920"
     inkscape:window-height="1027"
     inkscape:window-x="0"
     inkscape:window-y="25"
     inkscape:window-maximized="1"
     inkscape:current-layer="layer1">
    <sodipodi:guide
       position="8.6013498,3.9010983"
       orientation="0,-1"
       id="guide1367"
       inkscape:locked="false" />
    <sodipodi:guide
       position="8.9171898,4.1886783"
       orientation="1,0"
       id="guide1369"
       inkscape:locked="false" />
  </sodipodi:namedview>
  <defs
     id="defs1128" />
  <g
     inkscape:label="Layer 1"
     inkscape:groupmode="layer"
     id="layer1"
     transform="translate(-117.004,-125.115)">
    <path
       d="m 120.63811,149.14904 q -0.098,0.0674 -0.29408,0.16542 -0.18993,0.098 -0.4595,0.17155 -0.26345,0.0674 -0.58816,0.0613 -0.52077,-0.006 -0.93738,-0.1838 -0.41662,-0.1838 -0.70457,-0.49014 -0.28796,-0.31246 -0.44725,-0.71069 -0.15317,-0.40436 -0.15317,-0.85774 0,-0.50851 0.1593,-0.93125 0.15929,-0.42274 0.45337,-0.72908 0.29408,-0.31246 0.69844,-0.484 0.40436,-0.17155 0.88225,-0.17155 0.42274,0 0.75358,0.1164 0.33696,0.11029 0.56365,0.2512 l -0.28183,0.66781 q -0.17154,-0.11641 -0.42886,-0.23282 -0.25732,-0.1164 -0.58204,-0.1164 -0.29408,0 -0.56365,0.12253 -0.26958,0.11641 -0.47176,0.33697 -0.20218,0.21443 -0.32471,0.50238 -0.11641,0.28796 -0.11641,0.62493 0,0.34922 0.10416,0.6433 0.11028,0.29408 0.30633,0.50851 0.20218,0.20831 0.47788,0.33084 0.28183,0.11641 0.63105,0.11641 0.34309,0 0.60041,-0.10415 0.26345,-0.11028 0.42274,-0.24507 z"
       style="font-weight:600;font-size:6.12668px;font-family:'Josefin Sans';-inkscape-font-specification:'Josefin Sans Semi-Bold';fill:#008753;fill-rule:evenodd;stroke-width:1.14876;stroke-dashoffset:5.28988"
       id="path1375" />
    <path
       d="m 122.94984,145.03804 q 0.50852,0 0.86999,0.17155 0.36147,0.17155 0.5514,0.49013 0.19605,0.31859 0.19605,0.77196 0,0.26345 -0.0858,0.5269 -0.0797,0.26345 -0.25732,0.47788 -0.17155,0.21443 -0.46563,0.34309 -0.28795,0.12866 -0.71069,0.12866 h -0.6433 v 1.55005 h -0.71683 v -4.46022 z m 0.098,2.22399 q 0.23281,0 0.39211,-0.0797 0.15929,-0.0796 0.24506,-0.20218 0.0919,-0.12253 0.12866,-0.25732 0.0429,-0.13479 0.0429,-0.23894 0,-0.10416 -0.0368,-0.23282 -0.0368,-0.13478 -0.12253,-0.25119 -0.0858,-0.12253 -0.23894,-0.19605 -0.15317,-0.0796 -0.39211,-0.0796 h -0.66168 v 1.5378 z"
       style="font-weight:600;font-size:6.12668px;font-family:'Josefin Sans';-inkscape-font-specification:'Josefin Sans Semi-Bold';fill:#008753;fill-rule:evenodd;stroke-width:1.14876;stroke-dashoffset:5.28988"
       id="path1377" />
    <path
       id="path1380"
       d="m 125.68316,145.04413 v 4.44211 h 0.29404 l -0.006,-3.67109 3.35122,3.77548 0.0124,-5.2e-4 v -4.45399 h -0.28835 l 0.006,3.7145 -3.35122,-3.80649 z"
       style="font-weight:300;font-size:6.12668px;font-family:'Josefin Sans';-inkscape-font-specification:'Josefin Sans Light';fill:#008753;fill-rule:evenodd;stroke-width:1.14876;stroke-dashoffset:5.28988" />
    <path
       d="m 130.819,145.13631 h 0.30021 v 4.34995 H 130.819 Z"
       id="path1382"
       style="font-weight:300;font-size:6.12668px;font-family:'Josefin Sans';-inkscape-font-specification:'Josefin Sans Light';fill:#008753;fill-rule:evenodd;stroke-width:1.14876;stroke-dashoffset:5.28988" />
    <path
       d="m 135.8876,149.17992 q -0.11028,0.0735 -0.26957,0.14092 -0.15317,0.0613 -0.33084,0.11028 -0.17767,0.049 -0.3676,0.0735 -0.1838,0.0306 -0.34922,0.0306 -0.51464,0 -0.93126,-0.16542 -0.41049,-0.17155 -0.70457,-0.46563 -0.29408,-0.30021 -0.45337,-0.69231 -0.15317,-0.39824 -0.15317,-0.85774 0,-0.49626 0.17155,-0.91287 0.17767,-0.41662 0.48401,-0.71683 0.30633,-0.30633 0.71069,-0.47175 0.40436,-0.16542 0.85774,-0.16542 0.34309,0 0.6433,0.0858 0.30633,0.0858 0.5514,0.23282 l -0.11028,0.26957 q -0.14091,-0.0858 -0.31859,-0.14704 -0.17767,-0.0674 -0.3676,-0.10415 -0.1838,-0.0368 -0.3676,-0.0368 -0.41661,0 -0.77196,0.14704 -0.35535,0.14704 -0.6188,0.41048 -0.26344,0.26345 -0.41048,0.6188 -0.14704,0.35535 -0.14704,0.77196 0,0.40436 0.13478,0.75358 0.14092,0.3431 0.39211,0.60654 0.25732,0.25732 0.61267,0.40436 0.35535,0.14092 0.79034,0.14092 0.25732,0 0.53915,-0.0613 0.28183,-0.0613 0.48401,-0.17767 v -1.20696 h -0.98027 v -0.28795 h 1.28047 z"
       id="path1384"
       style="font-weight:300;font-size:6.12668px;font-family:'Josefin Sans';-inkscape-font-specification:'Josefin Sans Light';fill:#008753;fill-rule:evenodd;stroke-width:1.14876;stroke-dashoffset:5.28988" />
    <path
       d="m 137.14357,145.13631 h 2.68348 v 0.28796 h -2.38327 v 1.72772 h 2.14433 v 0.28795 h -2.14433 v 1.75836 h 2.46905 v 0.28796 h -2.76926 z"
       id="path1386"
       style="font-weight:300;font-size:6.12668px;font-family:'Josefin Sans';-inkscape-font-specification:'Josefin Sans Light';fill:#008753;fill-rule:evenodd;stroke-width:1.14876;stroke-dashoffset:5.28988" />
    <path
       id="path1388"
       d="m 141.05841,145.13612 v 4.35012 h 0.30024 v -1.82573 h 0.67386 c 0.11767,0 0.22704,-0.008 0.32763,-0.0232 l 1.13688,1.84898 h 0.34933 l -1.17771,-1.93063 c 0.004,-0.002 0.009,-0.003 0.0134,-0.005 0.17563,-0.0735 0.31863,-0.17202 0.42891,-0.29455 0.1103,-0.12254 0.18975,-0.2592 0.23875,-0.41032 0.049,-0.15521 0.0739,-0.31463 0.0739,-0.478 0,-0.21648 -0.0413,-0.40238 -0.12299,-0.55759 -0.0817,-0.15521 -0.18974,-0.2818 -0.32453,-0.37982 -0.13071,-0.10211 -0.27794,-0.17521 -0.44132,-0.22014 -0.15929,-0.049 -0.32031,-0.0739 -0.48369,-0.0739 z m 0.30024,0.28835 h 0.73535 c 0.15521,0 0.2961,0.0265 0.42272,0.0796 0.12661,0.049 0.23466,0.1184 0.32452,0.20826 0.0899,0.0858 0.15712,0.18587 0.20206,0.30024 0.049,0.11437 0.0739,0.23672 0.0739,0.36742 0,0.11028 -0.0186,0.22469 -0.0553,0.34313 -0.0327,0.11437 -0.0899,0.22082 -0.17156,0.31885 -0.0817,0.098 -0.19398,0.17747 -0.33693,0.23874 -0.14296,0.0613 -0.32252,0.092 -0.53899,0.092 h -0.65577 z"
       style="font-weight:300;font-size:6.12668px;font-family:'Josefin Sans';-inkscape-font-specification:'Josefin Sans Light';fill:#008753;fill-rule:evenodd;stroke-width:1.14876;stroke-dashoffset:5.28988" />
    <path
       d="m 144.9367,145.13631 h 0.30021 v 4.34995 h -0.30021 z"
       id="path1390"
       style="font-weight:300;font-size:6.12668px;font-family:'Josefin Sans';-inkscape-font-specification:'Josefin Sans Light';fill:#008753;fill-rule:evenodd;stroke-width:1.14876;stroke-dashoffset:5.28988" />
    <path
       id="path1392"
       d="m 148.07968,144.94647 -1.83813,4.53977 h 0.30024 l 0.57619,-1.4397 h 1.9203 l 0.56689,1.4397 h 0.33693 l -1.83813,-4.53977 z m 0.007,0.68161 0.84129,2.13682 h -1.69705 z"
       style="font-weight:300;font-size:6.12668px;font-family:'Josefin Sans';-inkscape-font-specification:'Josefin Sans Light';fill:#008753;fill-rule:evenodd;stroke-width:1.14876;stroke-dashoffset:5.28988" />
    <circle
       style="fill:#f2cd5d;fill-opacity:1;fill-rule:evenodd;stroke:none;stroke-width:0.67068;stroke-dashoffset:5.28988"
       id="circle4787"
       cx="133.49805"
       cy="126.62481"
       r="1.4098122" />
    <circle
       style="fill:#008753;fill-opacity:1;fill-rule:evenodd;stroke:none;stroke-width:0.67068;stroke-dashoffset:5.28988"
       id="circle4793"
       cx="129.20573"
       cy="128.47708"
       r="1.4098122" />
    <circle
       style="fill:#008753;fill-opacity:1;fill-rule:evenodd;stroke:none;stroke-width:0.67068;stroke-dashoffset:5.28988"
       id="circle4795"
       cx="137.79037"
       cy="128.47708"
       r="1.4098122" />
    <path
       style="fill:#008753;fill-opacity:1;fill-rule:evenodd;stroke:none;stroke-width:1.32292;stroke-dashoffset:5.28988;stroke-opacity:1"
       d="m 127.24111,143.61874 c 0,0 2.81622,-3.26372 6.33023,-3.26372 3.51402,0 6.18365,3.26372 6.18365,3.26372 0,0 -3.07549,-2.40429 -6.25696,-2.40429 -3.34832,0 -6.25692,2.40429 -6.25692,2.40429 z"
       id="path4797"
       sodipodi:nodetypes="cscsc" />
    <g
       id="g4941"
       transform="translate(0.28378,0.10000742)">
      <path
         style="fill:#008753;fill-opacity:1;fill-rule:evenodd;stroke:none;stroke-width:0.572859;stroke-dashoffset:5.28988"
         d="m 129.01202,130.81344 c 0,0 -3.60641,2.79766 -3.60641,4.6079 0,1.81026 2.25841,0.74057 2.93241,1.6457 0.674,0.90512 -1.5005,3.70278 -0.91943,4.03192 0.58108,0.32914 4.19019,-4.69021 3.85183,-5.43076 -0.33835,-0.74055 -3.40096,-0.46442 -3.85183,-0.82284 -0.33628,-0.26733 -0.0214,-0.8814 0.20347,-1.36689 0.40792,-0.88073 1.38996,-2.66503 1.38996,-2.66503 z"
         id="path4783"
         sodipodi:nodetypes="cssssssc" />
      <path
         style="fill:#f2cd5d;fill-opacity:1;fill-rule:evenodd;stroke:none;stroke-width:0.572859;stroke-dashoffset:5.28988"
         d="m 132.6578,128.95206 c 0,0 -3.60641,2.79766 -3.60641,4.6079 0,1.81026 2.25841,0.74057 2.93241,1.6457 0.674,0.90512 -1.5005,3.70278 -0.91943,4.03192 0.58108,0.32914 4.19019,-4.69021 3.85183,-5.43076 -0.33835,-0.74055 -3.40096,-0.46442 -3.85183,-0.82284 -0.33628,-0.26733 -0.0214,-0.8814 0.20347,-1.36689 0.40792,-0.88073 1.38996,-2.66503 1.38996,-2.66503 z"
         id="path3663"
         sodipodi:nodetypes="cssssssc" />
      <path
         style="fill:#008753;fill-opacity:1;fill-rule:evenodd;stroke:none;stroke-width:0.572859;stroke-dashoffset:5.28988"
         d="m 133.77073,128.95206 c 0,0 3.60641,2.79766 3.60641,4.6079 0,1.81026 -2.25841,0.74057 -2.93241,1.6457 -0.674,0.90512 1.5005,3.70278 0.91943,4.03192 -0.58108,0.32914 -4.19019,-4.69021 -3.85183,-5.43076 0.33835,-0.74055 3.40096,-0.46442 3.85183,-0.82284 0.33628,-0.26733 0.0214,-0.8814 -0.20347,-1.36689 -0.40792,-0.88073 -1.38996,-2.66503 -1.38996,-2.66503 z"
         id="path3665"
         sodipodi:nodetypes="cssssssc" />
      <path
         style="fill:#008753;fill-opacity:1;fill-rule:evenodd;stroke:none;stroke-width:0.572859;stroke-dashoffset:5.28988"
         d="m 137.41652,130.81344 c 0,0 3.60641,2.79766 3.60641,4.6079 0,1.81026 -2.25841,0.74057 -2.93241,1.6457 -0.674,0.90512 1.5005,3.70278 0.91943,4.03192 -0.58108,0.32914 -4.19019,-4.69021 -3.85183,-5.43076 0.33835,-0.74055 3.40096,-0.46442 3.85183,-0.82284 0.33628,-0.26733 0.0214,-0.8814 -0.20347,-1.36689 -0.40792,-0.88073 -1.38996,-2.66503 -1.38996,-2.66503 z"
         id="path3667"
         sodipodi:nodetypes="cssssssc" />
    </g>
  </g>
</svg>
